<?xml version="1.0" encoding="utf-8"?>
<!-- Generator: Adobe Illustrator 16.0.0, SVG Export Plug-In . SVG Version: 6.00 Build 0)  -->
<!DOCTYPE svg PUBLIC "-//W3C//DTD SVG 1.1//EN" "http://www.w3.org/Graphics/SVG/1.1/DTD/svg11.dtd">
<svg version="1.1" xmlns="http://www.w3.org/2000/svg" xmlns:xlink="http://www.w3.org/1999/xlink" x="0px" y="0px" width="16px"
	 height="16px" viewBox="0 0 16 16" enable-background="new 0 0 16 16" xml:space="preserve">
<g id="Calque_1">
</g>
<g id="Calque_3">
	<g>
		<g>
			<path fill="#CCCCCC" d="M7.3,1.741C6.347,2.785,5.733,4.088,6.16,5.513c0.3,1.004,1.315,1.289,2.203,0.896
				c1.797-0.795,2.515-2.814,1.618-4.549C9.605,1.135,8.606,0.925,7.929,1.322C7.196,1.751,7.015,2.648,7.39,3.375
				c0.083,0.16,0.084,0.164,0.006,0.011c0.04,0.174,0.042,0.165,0.009-0.03C7.4,3.53,7.41,3.518,7.434,3.317
				C7.42,3.403,7.271,3.717,7.421,3.414C7.331,3.554,7.338,3.556,7.443,3.42C7.387,3.487,7.326,3.549,7.262,3.608
				c0.131-0.091,0.123-0.086-0.024,0.013C7.116,3.702,6.982,3.76,6.849,3.819c0.734,0.299,1.469,0.598,2.204,0.896
				C8.925,4.289,9.021,4.953,9.01,4.524c0.008,0.274,0.034-0.12,0.055-0.187C8.991,4.575,9.203,4.122,9.204,4.12
				c0.154-0.249,0.008-0.029,0.217-0.258c0.551-0.603,0.598-1.523,0-2.121C8.863,1.183,7.851,1.137,7.3,1.741L7.3,1.741z"/>
		</g>
	</g>
	<g>
		<g>
			<path fill="#CCCCCC" d="M2.548,4.361C2.082,5.072,1.724,5.916,1.947,6.777c0.259,1.005,1.378,1.511,2.331,1.207
				c1.878-0.6,2.353-2.796,2.012-4.507C6.111,2.582,4.844,2.033,4.086,2.581c-1.26,0.913-1.938,2.208-2.321,3.694
				C1.442,7.526,2.82,8.667,3.968,7.969c1.246-0.757,1.855-2.045,2.207-3.412c0.483-1.875-2.411-2.67-2.893-0.798
				C3.226,3.979,3.165,4.195,3.095,4.41C3.061,4.515,3.023,4.618,2.982,4.721c0.043-0.11,0.027-0.083-0.048,0.082
				c-0.03,0.061-0.328,0.489-0.198,0.335C2.669,5.213,2.598,5.284,2.522,5.351C2.627,5.27,2.604,5.279,2.455,5.378
				c0.734,0.565,1.469,1.129,2.203,1.694C4.713,6.859,4.773,6.648,4.84,6.438C4.921,6.187,4.925,6.185,5.003,6.02
				C5.185,5.633,5.419,5.303,5.6,5.171C4.866,4.873,4.131,4.574,3.397,4.275C3.43,4.46,3.435,4.469,3.411,4.301
				c0.016,0.13,0.015,0.261,0.014,0.392c-0.003,0.405,0.068-0.305,0,0.07C3.405,4.869,3.373,4.972,3.34,5.074
				C3.466,4.68,3.308,5.116,3.236,5.226c0.221-0.34,0.107-0.135,0.024-0.048C3.177,5.267,2.959,5.4,3.341,5.129
				C3.046,5.338,3.689,5.046,3.377,5.12c0.663-0.157,1.314,0.287,1.45,0.812c0.027,0.311,0.043,0.387,0.047,0.227
				c-0.024,0.453-0.03,0.245,0.019,0.096c-0.13,0.396-0.019,0.06,0.029-0.031c0.064-0.121,0.141-0.235,0.216-0.35
				C5.588,5.19,5.279,4.22,4.601,3.822C3.868,3.393,2.996,3.678,2.548,4.361L2.548,4.361z"/>
		</g>
	</g>
	<g>
		<g>
			<path fill="#CCCCCC" d="M11.27,3.476C10.073,4.158,9.19,5.221,9.168,6.647c-0.012,0.753,0.694,1.585,1.5,1.5
				c0.923-0.097,1.762-0.371,2.424-1.055c0.744-0.768,0.9-1.778,0.729-2.793c-0.136-0.807-1.118-1.248-1.845-1.047
				c-0.848,0.233-1.184,1.04-1.048,1.845c-0.02-0.184-0.026-0.19-0.019-0.019c0.039-0.198,0.04-0.213,0.004-0.046
				c-0.053,0.161-0.046,0.147,0.022-0.039c-0.089,0.139-0.078,0.131,0.034-0.023c-0.052,0.058-0.108,0.112-0.169,0.163
				c0.145-0.113,0.146-0.124,0.002-0.032c0.169-0.061,0.17-0.062,0.004-0.003c-0.048,0.017-0.461,0.083-0.14,0.049
				c0.5,0.5,1,1,1.5,1.5c0.007-0.417-0.087,0.285,0.013-0.105c-0.097,0.379,0.201-0.267-0.015,0.001
				c0.086-0.107,0.19-0.198,0.293-0.289c-0.113,0.086-0.095,0.077,0.054-0.028c0.089-0.057,0.179-0.11,0.271-0.161
				c0.709-0.405,0.948-1.353,0.538-2.052C12.905,3.304,11.979,3.07,11.27,3.476L11.27,3.476z"/>
		</g>
	</g>
	<g>
		<g>
			<path fill="#CCCCCC" d="M11.229,8.897c-0.626,0.661-1.179,1.386-1.235,2.324c-0.076,1.253,1.177,1.888,2.25,1.706
				c0.678-0.114,1.327-0.632,1.74-1.157c0.698-0.892,1.023-1.87,1.122-2.994c0.104-1.192-1.335-1.791-2.257-1.295
				c-1.32,0.709-2.23,1.982-2.909,3.284c-0.314,0.602-0.26,1.323,0.234,1.817c0.516,0.516,1.192,0.514,1.817,0.234
				c1.268-0.564,2.099-1.811,2.718-3c0.378-0.725,0.192-1.625-0.538-2.052c-0.679-0.398-1.675-0.186-2.052,0.539
				c-0.197,0.378-0.528,0.964-0.704,1.185c-0.335,0.42-0.456,0.524-0.938,0.739c0.684,0.684,1.368,1.368,2.052,2.052
				c0.216-0.412,0.562-1.018,0.765-1.273c0.365-0.464,0.631-0.698,1.068-0.934c-0.752-0.432-1.505-0.863-2.257-1.295
				c-0.041,0.473,0.061-0.279-0.023,0.161c-0.024,0.128-0.062,0.253-0.099,0.378c-0.02,0.063-0.181,0.432-0.024,0.088
				c-0.046,0.102-0.102,0.197-0.158,0.293c-0.042,0.072-0.258,0.358,0,0.029c-0.058,0.074-0.122,0.142-0.187,0.208
				c-0.06,0.062-0.125,0.116-0.19,0.171c0.336-0.28,0.15-0.121,0.054-0.062c-0.111,0.066-0.34,0.126,0.125-0.045
				c-0.131,0.049-0.343,0.038,0.194-0.012c0.514-0.047,1.164,0.577,1.196,1.236c0.019,0.377-0.069,0.368-0.009,0.181
				c-0.136,0.423-0.084,0.199-0.013,0.075c0.035-0.062,0.232-0.33,0.012-0.045c0.112-0.146,0.24-0.28,0.366-0.414
				c0.562-0.594,0.59-1.531,0-2.121C12.784,8.332,11.79,8.304,11.229,8.897L11.229,8.897z"/>
		</g>
	</g>
	<g>
		<path d="M6.021,10.482c-0.75-0.392-2.661-1.231-2.102,0.61c0.255,0.623,1.935,1.306,2.425,1.75
			c3.249,2.529,2.651-1.592,1.122-1.497C7.704,10.493,6.75,9.737,5.92,9.965"/>
		<g>
			<path fill="#CCCCCC" d="M6.778,9.188C6.052,8.813,5.343,8.555,4.532,8.454c-1.188-0.148-2.079,0.81-2.2,1.909
				c-0.133,1.203,0.594,2.05,1.509,2.688c0.38,0.265,0.796,0.479,1.196,0.713c0.069,0.04,0.554,0.395,0.247,0.139
				c0.296,0.247,0.615,0.474,0.942,0.679c0.699,0.438,1.678,0.771,2.494,0.476c0.955-0.344,1.421-1.146,1.482-2.127
				c0.094-1.512-1.18-3.106-2.735-3.085c0.482,0.633,0.964,1.266,1.446,1.898c0.382-2.087-1.364-3.61-3.392-3.226
				c-0.804,0.152-1.251,1.105-1.047,1.845c0.229,0.836,1.042,1.2,1.845,1.048c-0.269,0.051-0.348-0.196-0.299-0.464
				c-0.171,0.936,0.405,1.913,1.446,1.898c0.162,0.002,0.108-0.01-0.162-0.034c0.149,0.045,0.103,0.021-0.14-0.069
				c0.13,0.08,0.095,0.047-0.106-0.1c0.064,0.051,0.119,0.114,0.173,0.177c-0.377-0.434,0.122,0.397-0.091-0.14
				c0.053,0.134,0.11,0.603,0.057,0.093c0.004,0.053,0.005,0.105,0.004,0.158c-0.001,0.294,0.081-0.379,0.007-0.108
				c0.073-0.267,0.255-0.491,0.648-0.633c0.159-0.058,0.544,0.065,0.167-0.044c-0.151-0.054-0.153-0.055-0.007-0.001
				c-0.148-0.069-0.287-0.159-0.426-0.246c-0.412-0.258-0.793-0.584-1.329-0.893C6.006,10.858,5.75,10.711,5.5,10.555
				c-0.095-0.061-0.188-0.123-0.279-0.188c0.214,0.149-0.199-0.273,0.043,0.063c0.05,0.048,0.07,0.106,0.058,0.174
				c0-0.042-0.001-0.085-0.002-0.128c-0.03,0.472-0.286,0.789-0.77,0.954c-0.253,0.019-0.294,0.025-0.122,0.019
				c0.35-0.009-0.333-0.073,0.038,0.013c0.091,0.021,0.668,0.235,0.325,0.09c0.161,0.068,0.317,0.146,0.473,0.227
				C6.981,12.661,8.499,10.073,6.778,9.188L6.778,9.188z"/>
		</g>
	</g>
</g>
<g id="Calque_2">
	<g>
		<g>
			<path d="M2.548,3.457C2.082,4.169,1.724,5.012,1.947,5.874C2.206,6.878,3.326,7.385,4.278,7.08C6.156,6.48,6.63,4.284,6.29,2.573
				C6.111,1.678,4.844,1.128,4.086,1.677c-1.26,0.912-1.938,2.208-2.321,3.694C1.442,6.622,2.82,7.762,3.968,7.065
				C5.214,6.309,5.823,5.02,6.175,3.654c0.483-1.875-2.41-2.67-2.893-0.798c-0.057,0.219-0.118,0.435-0.187,0.65
				C3.061,3.61,3.023,3.714,2.982,3.817c0.043-0.109,0.027-0.082-0.048,0.083C2.904,3.96,2.606,4.388,2.736,4.234
				C2.669,4.309,2.598,4.38,2.522,4.446c0.104-0.081,0.082-0.071-0.068,0.028c0.734,0.565,1.469,1.129,2.203,1.694
				C4.713,5.955,4.773,5.744,4.84,5.534c0.081-0.252,0.085-0.253,0.163-0.418C5.185,4.729,5.419,4.399,5.6,4.268
				C4.866,3.969,4.131,3.67,3.397,3.371C3.43,3.556,3.435,3.565,3.411,3.397c0.016,0.13,0.015,0.261,0.014,0.392
				c-0.003,0.405,0.068-0.304,0,0.07C3.405,3.965,3.373,4.068,3.34,4.17c0.126-0.394-0.032,0.042-0.104,0.152
				c0.221-0.34,0.107-0.135,0.024-0.048C3.177,4.363,2.959,4.496,3.341,4.226C3.046,4.435,3.689,4.143,3.377,4.216
				c0.663-0.157,1.314,0.287,1.45,0.812C4.855,5.34,4.871,5.416,4.875,5.256C4.851,5.708,4.845,5.5,4.894,5.352
				c-0.13,0.395-0.019,0.06,0.029-0.031C4.987,5.2,5.064,5.085,5.139,4.971c0.449-0.684,0.14-1.655-0.539-2.052
				C3.868,2.489,2.996,2.774,2.548,3.457L2.548,3.457z"/>
		</g>
	</g>
	<g>
		<g>
			<path d="M7.3,0.837C6.347,1.88,5.733,3.184,6.16,4.609C6.46,5.613,7.475,5.897,8.363,5.505c1.797-0.794,2.515-2.814,1.618-4.548
				C9.604,0.231,8.606,0.021,7.928,0.418C7.196,0.847,7.014,1.745,7.39,2.471c0.083,0.16,0.084,0.164,0.007,0.011
				c0.039,0.174,0.042,0.164,0.009-0.03C7.4,2.626,7.409,2.614,7.434,2.414C7.42,2.499,7.271,2.813,7.421,2.509
				C7.331,2.65,7.338,2.652,7.443,2.516C7.387,2.583,7.326,2.645,7.262,2.704c0.131-0.091,0.123-0.087-0.024,0.012
				c-0.122,0.081-0.256,0.14-0.389,0.198c0.734,0.299,1.469,0.598,2.204,0.896C8.925,3.385,9.021,4.048,9.01,3.62
				C9.018,3.894,9.044,3.5,9.064,3.433C8.991,3.67,9.203,3.218,9.204,3.216c0.154-0.25,0.008-0.028,0.217-0.258
				c0.551-0.603,0.598-1.524,0-2.121C8.863,0.278,7.851,0.233,7.3,0.837L7.3,0.837z"/>
		</g>
	</g>
	<g>
		<g>
			<path d="M11.229,7.993c-0.626,0.661-1.179,1.387-1.235,2.324c-0.076,1.254,1.177,1.889,2.25,1.707
				c0.678-0.114,1.327-0.632,1.74-1.158c0.698-0.892,1.023-1.87,1.122-2.994c0.104-1.191-1.335-1.792-2.257-1.295
				c-1.32,0.71-2.23,1.982-2.909,3.285c-0.314,0.602-0.26,1.323,0.234,1.817c0.516,0.516,1.192,0.514,1.817,0.234
				c1.268-0.565,2.098-1.811,2.718-3c0.378-0.725,0.192-1.625-0.538-2.052c-0.679-0.398-1.675-0.186-2.052,0.539
				c-0.197,0.378-0.528,0.963-0.704,1.184c-0.335,0.419-0.456,0.525-0.938,0.74c0.684,0.684,1.368,1.368,2.052,2.052
				c0.216-0.412,0.562-1.018,0.765-1.274c0.365-0.464,0.631-0.698,1.068-0.934c-0.752-0.432-1.505-0.863-2.257-1.295
				c-0.041,0.473,0.061-0.279-0.023,0.161c-0.024,0.128-0.062,0.253-0.099,0.378c-0.02,0.064-0.181,0.432-0.024,0.088
				c-0.046,0.101-0.102,0.197-0.158,0.293c-0.042,0.073-0.258,0.358,0,0.03c-0.058,0.074-0.122,0.141-0.187,0.208
				c-0.06,0.062-0.125,0.116-0.19,0.171c0.336-0.28,0.15-0.121,0.054-0.062c-0.111,0.066-0.34,0.126,0.125-0.045
				c-0.131,0.048-0.343,0.038,0.194-0.012c0.514-0.047,1.164,0.577,1.196,1.235c0.019,0.378-0.069,0.369-0.009,0.181
				c-0.136,0.423-0.084,0.199-0.013,0.075c0.035-0.062,0.232-0.33,0.012-0.045c0.112-0.146,0.24-0.28,0.366-0.414
				c0.562-0.594,0.59-1.531,0-2.121C12.784,7.427,11.79,7.399,11.229,7.993L11.229,7.993z"/>
		</g>
	</g>
	<g>
		<g>
			<path d="M11.27,2.572C10.072,3.254,9.19,4.317,9.168,5.744c-0.012,0.753,0.694,1.585,1.5,1.5
				c0.923-0.098,1.762-0.371,2.424-1.055c0.744-0.768,0.901-1.777,0.729-2.793c-0.136-0.807-1.118-1.248-1.845-1.047
				c-0.848,0.233-1.184,1.04-1.048,1.845c-0.02-0.184-0.026-0.19-0.019-0.019c0.039-0.198,0.04-0.213,0.004-0.046
				c-0.053,0.161-0.046,0.147,0.022-0.039c-0.089,0.139-0.078,0.131,0.034-0.023c-0.052,0.059-0.108,0.113-0.169,0.163
				c0.145-0.113,0.146-0.124,0.002-0.032c0.169-0.061,0.17-0.062,0.004-0.003c-0.048,0.017-0.461,0.083-0.14,0.049
				c0.5,0.5,1,1,1.5,1.5c0.007-0.417-0.087,0.284,0.013-0.105c-0.097,0.379,0.201-0.267-0.015,0.001
				c0.086-0.107,0.19-0.198,0.293-0.289c-0.113,0.086-0.095,0.077,0.054-0.028c0.089-0.057,0.179-0.11,0.271-0.161
				c0.709-0.405,0.948-1.353,0.538-2.052C12.905,2.4,11.979,2.167,11.27,2.572L11.27,2.572z"/>
		</g>
	</g>
	<g>
		<path d="M6.021,9.579c-0.75-0.393-2.661-1.231-2.102,0.609c0.255,0.624,1.935,1.306,2.425,1.75
			c3.249,2.53,2.651-1.592,1.122-1.496C7.705,9.59,6.75,8.833,5.92,9.061"/>
		<g>
			<path d="M6.778,8.284C6.052,7.909,5.343,7.651,4.532,7.55c-1.188-0.148-2.079,0.809-2.2,1.909
				C2.2,10.662,2.926,11.51,3.842,12.147c0.38,0.265,0.796,0.479,1.196,0.713c0.069,0.04,0.554,0.395,0.247,0.139
				c0.297,0.247,0.615,0.474,0.942,0.679c0.699,0.438,1.677,0.771,2.494,0.477c0.955-0.345,1.421-1.146,1.482-2.127
				c0.094-1.512-1.18-3.107-2.735-3.085c0.482,0.633,0.964,1.266,1.446,1.898c0.383-2.087-1.365-3.611-3.392-3.227
				C4.718,7.767,4.271,8.72,4.474,9.459c0.229,0.836,1.042,1.2,1.845,1.048c-0.268,0.051-0.348-0.194-0.299-0.463
				c-0.172,0.936,0.405,1.913,1.446,1.898c0.162,0.002,0.108-0.01-0.162-0.034c0.149,0.045,0.103,0.021-0.14-0.069
				c0.13,0.08,0.095,0.047-0.106-0.101c0.065,0.052,0.119,0.115,0.173,0.178c-0.377-0.435,0.122,0.397-0.091-0.141
				c0.053,0.134,0.11,0.603,0.057,0.094c0.004,0.053,0.005,0.105,0.004,0.158c-0.001,0.293,0.081-0.379,0.007-0.109
				c0.073-0.266,0.255-0.491,0.648-0.633c0.159-0.058,0.544,0.065,0.167-0.044c-0.151-0.054-0.153-0.054-0.007,0
				c-0.148-0.07-0.287-0.16-0.426-0.247c-0.412-0.258-0.793-0.583-1.329-0.892C6.006,9.955,5.75,9.808,5.5,9.651
				C5.405,9.591,5.312,9.528,5.221,9.463c0.214,0.148-0.199-0.274,0.043,0.062c0.05,0.048,0.07,0.106,0.058,0.175
				c0-0.043-0.001-0.086-0.002-0.129c-0.03,0.472-0.286,0.79-0.77,0.955c-0.253,0.019-0.294,0.024-0.122,0.018
				c0.35-0.009-0.333-0.073,0.038,0.013c0.091,0.021,0.668,0.236,0.325,0.091c0.161,0.068,0.317,0.146,0.473,0.227
				C6.98,11.76,8.498,9.171,6.778,8.284L6.778,8.284z"/>
		</g>
	</g>
</g>
</svg>
