<?xml version="1.0" encoding="utf-8"?>
<!-- Generator: Adobe Illustrator 16.0.0, SVG Export Plug-In . SVG Version: 6.00 Build 0)  -->
<!DOCTYPE svg PUBLIC "-//W3C//DTD SVG 1.1//EN" "http://www.w3.org/Graphics/SVG/1.1/DTD/svg11.dtd">
<svg version="1.1" id="Calque_1" xmlns="http://www.w3.org/2000/svg" xmlns:xlink="http://www.w3.org/1999/xlink" x="0px" y="0px"
	 width="32px" height="32px" viewBox="0 0 32 32" enable-background="new 0 0 32 32" xml:space="preserve">
<g>
	<g>
		<path fill="#CCCCCC" d="M15.3,5.318c-2.031,1.948-3.578,4.525-2.592,7.392c0.245,0.711,1.048,1.356,1.845,1.047
			c3.585-1.387,6.284-4.833,4.052-8.606c-0.983-1.664-3.577-0.155-2.59,1.514c1.153,1.951-0.457,3.502-2.26,4.2
			c0.615,0.349,1.23,0.698,1.845,1.047c-0.632-1.839,0.542-3.247,1.82-4.473C18.819,6.098,16.695,3.979,15.3,5.318L15.3,5.318z"/>
	</g>
</g>
<g>
	<g>
		<path fill="#CCCCCC" d="M4.877,9.636c-0.922,1.231-1.933,2.82-1.507,4.432c0.384,1.455,1.965,1.844,3.254,1.511
			c3.746-0.969,4.723-5.602,3.982-8.841c-0.212-0.927-1.406-1.401-2.203-0.896c-2.981,1.888-4.595,4.926-5.565,8.233
			c-0.385,1.312,1.075,2.293,2.203,1.694c2.911-1.545,4.331-4.449,5.222-7.491c0.545-1.861-2.35-2.65-2.893-0.798
			c-0.677,2.312-1.62,4.518-3.843,5.698c0.734,0.565,1.469,1.129,2.203,1.694c0.744-2.532,1.885-4.982,4.187-6.44
			C9.182,8.133,8.447,7.834,7.713,7.535c0.405,1.77,0.165,3.906-1.492,4.962c-0.174,0.111-0.578,0.234-0.412,0.214
			c-0.384,0.046,0.258,0.094-0.079,0.01C6.015,12.792,6.152,13,6.262,13.27c-0.096-0.237-0.006-0.008-0.021,0.101
			c0.027-0.191,0.098-0.377,0.162-0.559c0.21-0.596,0.691-1.164,1.065-1.663C8.628,9.6,6.022,8.107,4.877,9.636L4.877,9.636z"/>
	</g>
</g>
<g>
	<g>
		<path fill="#CCCCCC" d="M23.247,8.445c-2.77,1.371-5.326,3.554-5.348,6.877c-0.005,0.765,0.688,1.57,1.5,1.5
			c4.153-0.356,8.181-3.049,7.231-7.695c-0.387-1.895-3.278-1.091-2.893,0.798c0.519,2.539-2.27,3.72-4.339,3.897
			c0.5,0.5,1,1,1.5,1.5c0.014-2.19,2.117-3.423,3.861-4.286C26.495,10.177,24.975,7.59,23.247,8.445L23.247,8.445z"/>
	</g>
</g>
<g>
	<g>
		<path fill="#CCCCCC" d="M23.632,19.026c-1.252,1.159-2.988,2.777-2.95,4.65c0.035,1.668,1.676,2.337,3.113,2.065
			c4.017-0.758,6.197-5.281,6.558-8.932c0.122-1.237-1.338-1.727-2.257-1.295c-3.562,1.674-6.062,4.835-8.031,8.149
			c-0.626,1.052,0.423,2.698,1.693,2.203c3.575-1.391,5.877-4.3,7.784-7.516c0.99-1.667-1.604-3.176-2.59-1.514
			c-1.458,2.456-3.22,5.059-5.991,6.137c0.564,0.734,1.129,1.469,1.693,2.203c1.73-2.908,3.827-5.602,6.955-7.072
			c-0.752-0.432-1.505-0.863-2.257-1.295c-0.239,2.421-1.49,4.783-3.733,5.875c-0.229,0.111-0.443,0.135-0.505,0.139
			c-0.396,0.025,0.259,0.087-0.072-0.007c0.314,0.089,0.631,0.396,0.638,0.743c0.008,0.375,0.057-0.097,0.003,0.026
			c0.119-0.271,0.293-0.518,0.46-0.759c0.437-0.629,1.053-1.164,1.61-1.681C27.175,19.83,25.049,17.714,23.632,19.026L23.632,19.026
			z"/>
	</g>
</g>
<g>
	<path d="M10.737,20.229c-2.107-0.968-7.482-3.04-5.91,1.506c0.717,1.538,5.44,3.224,6.819,4.319
		c9.138,6.243,7.456-3.93,3.157-3.694c0.666-2.104-2.016-3.971-4.35-3.409"/>
	<g>
		<path fill="#CCCCCC" d="M11.494,18.934c-2.189-0.99-8.357-3.282-8.441,1.191c-0.043,2.289,1.23,3.525,3.074,4.628
			c2.168,1.297,4.459,2.561,6.683,3.758c2.688,1.447,6.701,1.648,6.968-2.255c0.186-2.725-2.264-5.421-4.975-5.396
			c0.482,0.633,0.964,1.266,1.446,1.898c0.745-3.729-2.898-5.785-6.195-5.254c-1.906,0.307-1.094,3.197,0.798,2.893
			c0.9-0.145,2.763,0.27,2.504,1.564c-0.188,0.938,0.417,1.908,1.446,1.898c1.118-0.01,1.901,1.151,1.974,2.188
			c0.103,1.465-2.788-0.304-3.366-0.641c-1.189-0.692-2.291-1.441-3.525-2.063c-1.242-0.625-2.629-1.211-3.646-2.181
			c-0.489-0.466,0.22-0.966-0.42-0.702c0.4-0.165,0.949-0.009,1.353,0.076c0.967,0.205,1.911,0.581,2.809,0.986
			C11.729,22.313,13.255,19.729,11.494,18.934L11.494,18.934z"/>
	</g>
</g>
<g>
	<g>
		<path d="M4.877,7.265c-0.922,1.231-1.933,2.821-1.507,4.433c0.384,1.455,1.965,1.844,3.254,1.511
			c3.746-0.969,4.723-5.602,3.982-8.841C10.394,3.44,9.199,2.966,8.402,3.471c-2.981,1.888-4.595,4.925-5.565,8.232
			c-0.385,1.312,1.075,2.293,2.203,1.694c2.911-1.545,4.331-4.449,5.222-7.49c0.545-1.861-2.35-2.65-2.893-0.798
			C6.692,7.42,5.75,9.626,3.526,10.806c0.734,0.565,1.469,1.129,2.203,1.694c0.744-2.532,1.885-4.982,4.187-6.439
			C9.182,5.763,8.447,5.464,7.713,5.165c0.405,1.77,0.165,3.907-1.492,4.962c-0.174,0.111-0.578,0.234-0.412,0.214
			c-0.384,0.046,0.258,0.094-0.079,0.01c0.284,0.07,0.422,0.278,0.532,0.549c-0.096-0.237-0.006-0.009-0.021,0.101
			c0.027-0.192,0.098-0.377,0.162-0.559c0.21-0.596,0.691-1.165,1.065-1.664C8.628,7.229,6.022,5.736,4.877,7.265L4.877,7.265z"/>
	</g>
</g>
<g>
	<g>
		<path d="M15.3,3c-2.032,1.947-3.578,4.524-2.592,7.39c0.245,0.711,1.047,1.355,1.845,1.047c3.584-1.385,6.285-4.834,4.05-8.604
			c-0.984-1.663-3.579-0.154-2.59,1.514c1.155,1.95-0.454,3.501-2.258,4.198c0.615,0.349,1.23,0.698,1.845,1.047
			c-0.632-1.839,0.542-3.246,1.82-4.471C18.82,3.78,16.696,1.662,15.3,3L15.3,3z"/>
	</g>
</g>
<g>
	<g>
		<path d="M23.632,16.519c-1.252,1.16-2.988,2.778-2.95,4.652c0.035,1.667,1.676,2.337,3.113,2.065
			c4.018-0.758,6.197-5.284,6.558-8.935c0.122-1.237-1.338-1.729-2.257-1.295c-3.562,1.679-6.062,4.837-8.031,8.153
			c-0.625,1.051,0.422,2.699,1.693,2.203c3.574-1.394,5.876-4.3,7.784-7.515c0.99-1.667-1.604-3.175-2.59-1.514
			c-1.458,2.456-3.221,5.055-5.991,6.136c0.564,0.734,1.129,1.469,1.693,2.203c1.729-2.91,3.828-5.603,6.955-7.076
			c-0.752-0.432-1.505-0.864-2.257-1.295c-0.239,2.422-1.489,4.785-3.733,5.877c-0.229,0.112-0.443,0.135-0.505,0.14
			c-0.396,0.025,0.259,0.086-0.072-0.008c0.314,0.089,0.631,0.396,0.638,0.743c0.008,0.375,0.057-0.097,0.003,0.026
			c0.119-0.271,0.293-0.518,0.46-0.759c0.437-0.629,1.053-1.165,1.61-1.682C27.175,17.322,25.048,15.206,23.632,16.519
			L23.632,16.519z"/>
	</g>
</g>
<g>
	<g>
		<path d="M23.247,5.757c-2.771,1.372-5.326,3.554-5.348,6.878c-0.005,0.765,0.688,1.57,1.5,1.5c4.153-0.358,8.181-3.05,7.231-7.697
			c-0.387-1.895-3.278-1.091-2.893,0.798c0.519,2.539-2.27,3.721-4.339,3.899c0.5,0.5,1,1,1.5,1.5
			c0.014-2.192,2.116-3.424,3.861-4.288C26.495,7.489,24.975,4.902,23.247,5.757L23.247,5.757z"/>
	</g>
</g>
<g>
	<path d="M10.737,17.998c-2.107-0.968-7.482-3.04-5.91,1.505c0.717,1.539,5.44,3.222,6.819,4.319
		c9.138,6.245,7.456-3.929,3.157-3.693c0.668-2.104-2.016-3.972-4.35-3.41"/>
	<g>
		<path d="M11.494,16.703c-2.189-0.989-8.357-3.282-8.441,1.191c-0.043,2.29,1.23,3.525,3.074,4.628
			c2.169,1.296,4.459,2.561,6.683,3.758c2.688,1.448,6.701,1.65,6.968-2.253c0.186-2.726-2.264-5.422-4.975-5.397
			c0.482,0.633,0.964,1.266,1.446,1.898c0.748-3.729-2.899-5.786-6.195-5.255c-1.906,0.307-1.094,3.197,0.798,2.893
			c0.9-0.145,2.764,0.271,2.504,1.565c-0.188,0.938,0.418,1.908,1.446,1.898c1.118-0.01,1.901,1.151,1.974,2.188
			c0.103,1.465-2.788-0.305-3.366-0.641c-1.189-0.693-2.29-1.442-3.525-2.064c-1.242-0.625-2.629-1.211-3.646-2.18
			c-0.49-0.467,0.221-0.966-0.42-0.702c0.4-0.165,0.949-0.009,1.353,0.076c0.967,0.205,1.911,0.581,2.809,0.986
			C11.729,20.083,13.255,17.499,11.494,16.703L11.494,16.703z"/>
	</g>
</g>
<g>
	<g>
		<path d="M22.401,11.269c1.935,0,1.935-3,0-3S20.467,11.269,22.401,11.269L22.401,11.269z"/>
	</g>
</g>
<g>
	<g>
		<path d="M15.729,8.323c1.935,0,1.935-3,0-3S13.794,8.323,15.729,8.323L15.729,8.323z"/>
	</g>
</g>
</svg>
